<svg width="130" height="24" viewBox="0 0 130 24" fill="none" xmlns="http://www.w3.org/2000/svg">
<g clip-path="url(#clip0)">
<path d="M12.3369 14.41C11.5517 14.906 10.6139 15.1846 9.61407 15.1846C8.6142 15.1846 7.67647 14.9004 6.89126 14.41C6.46759 14.1481 5.99307 14.6886 6.31506 15.0676C7.11157 15.9926 8.29785 16.5721 9.61407 16.5721C10.9303 16.5721 12.1166 15.987 12.9131 15.0676C13.2464 14.6886 12.7605 14.1426 12.3369 14.41Z" fill="#0083FF"/>
<path d="M11.9765 3.38797C11.5302 3.32668 11.067 3.29324 10.5981 3.29324V3.2821C10.5925 3.2821 10.5755 3.2821 10.5699 3.2821C10.5529 2.62457 10.3496 2.01718 10.005 1.50453C9.62085 0.936151 9.06725 0.484792 8.41761 0.228465C8.03913 0.0835849 7.61546 0 7.17484 0C6.17497 0 5.28243 0.429069 4.66669 1.10332H4.65539C4.65539 1.10332 -0.903205 6.45832 0.12491 14.6886C0.164453 15.0954 0.232241 15.4966 0.322624 15.8867C0.322624 15.8867 0.322624 15.8867 0.322624 15.8923C1.33379 20.4281 5.35022 23.8496 10.197 23.9889C16.1002 24.1616 21.0148 19.3861 20.9471 13.524C20.8906 8.35292 17.0097 4.09566 11.9765 3.38797ZM6.03374 2.42396C6.03374 2.42396 7.06751 1.28163 7.99394 2.20664C7.99959 2.21221 7.99959 2.22336 8.01089 2.22336C8.12952 2.35709 8.90907 3.28767 7.57027 4.3297C6.86414 4.88693 6.2936 5.57232 5.94336 6.40817C6.47436 5.92338 7.10705 5.54446 7.80187 5.32157C8.38372 5.17669 8.99381 5.10425 9.63214 5.10425C9.79032 5.10425 9.94849 5.10982 10.1067 5.12097C10.3835 5.13768 10.6659 5.17112 10.9371 5.2157C14.4903 5.82865 17.1905 8.90458 17.1905 12.599C17.1905 16.7393 13.8011 20.0994 9.63214 20.0994C5.4632 20.0994 2.06816 16.7337 2.06816 12.599C2.06816 12.5322 2.06816 12.4709 2.06816 12.404C2.06816 12.365 2.06816 12.3204 2.06816 12.2814C2.13595 9.95775 2.72344 7.76225 3.71766 5.80079C3.85889 5.5166 4.01141 5.24356 4.16958 4.97609C4.70058 4.06222 5.32762 3.20966 6.03374 2.42396Z" fill="#0083FF"/>
<path d="M26.6973 18.6341V6.15213H32.8264C33.9449 6.15213 34.8713 6.47533 35.6114 7.13286C36.3514 7.77368 36.7298 8.57609 36.7298 9.55682C36.7298 10.571 36.3118 11.4124 35.4984 12.0699C36.6734 12.7665 37.2722 13.7639 37.2722 15.0678C37.2722 16.082 36.8767 16.9234 36.0972 17.62C35.3176 18.2998 34.346 18.6341 33.1879 18.6341H26.6973ZM29.1207 8.36434V11.1282H32.8264C33.6229 11.1282 34.2161 10.5375 34.2161 9.73513C34.2161 8.94944 33.6173 8.36434 32.8264 8.36434H29.1207ZM29.1207 13.3237V16.4275H33.1879C34.0748 16.4275 34.7414 15.7477 34.7414 14.8784C34.7414 14.0035 34.0748 13.3293 33.1879 13.3293H29.1207V13.3237Z" fill="#161E34"/>
<path d="M38.5039 18.6341V6.15213H40.7635V18.6341H38.5039Z" fill="#161E34"/>
<path d="M42.2441 9.36176H44.5037V14.6387C44.5037 15.8535 45.4076 16.7785 46.6391 16.7785C47.8479 16.7785 48.7744 15.8535 48.7744 14.6387V9.36176H51.034V18.6341H48.7744V17.5085C48.0852 18.4335 47.1475 18.9016 45.9555 18.9016C44.8879 18.9016 44.001 18.5617 43.3005 17.8651C42.6 17.1686 42.2498 16.316 42.2498 15.2796V9.36176H42.2441Z" fill="#161E34"/>
<path d="M54.5008 14.8224C54.8454 16.0372 55.93 16.8563 57.2462 16.8563C58.167 16.8563 58.907 16.5331 59.4493 15.8756L61.6354 16.4997C60.7655 17.982 59.1386 18.907 57.2405 18.907C55.7944 18.907 54.5855 18.4445 53.6083 17.5139C52.6479 16.5666 52.1621 15.4075 52.1621 14.0033C52.1621 12.5935 52.631 11.4345 53.5744 10.5095C54.5347 9.56217 55.7097 9.09967 57.0993 9.09967C58.489 9.09967 59.664 9.56217 60.6073 10.5095C61.5677 11.4568 62.0365 12.6158 62.0365 14.0033C62.0365 14.1983 62.0196 14.4658 61.9631 14.8224H54.5008ZM59.7035 13.0895C59.342 11.9304 58.2913 11.1447 57.0654 11.1447C55.8904 11.1447 54.8623 11.9304 54.5177 13.0895H59.7035Z" fill="#161E34"/>
<path d="M68.9457 6.15213C70.1941 6.15213 71.2222 6.54219 72.0526 7.31117C72.9 8.08015 73.318 9.03859 73.318 10.1809C73.318 11.8025 72.3803 13.1788 70.9115 13.8196L73.8038 18.6341H71.1092L68.4542 14.232H65.5054V18.6341H63.082V6.15213H68.9457ZM65.5111 8.36434V12.0198H68.9457C70.0133 12.0198 70.7872 11.2341 70.7872 10.1809C70.7872 9.12775 70.0077 8.36434 68.9457 8.36434H65.5111Z" fill="#161E34"/>
<path d="M76.3738 14.8224C76.7184 16.0372 77.803 16.8563 79.1192 16.8563C80.04 16.8563 80.7801 16.5331 81.3224 15.8756L83.5085 16.4997C82.6386 17.982 81.0117 18.907 79.1136 18.907C77.6675 18.907 76.4586 18.4445 75.4813 17.5139C74.521 16.5666 74.0352 15.4075 74.0352 14.0033C74.0352 12.5935 74.504 11.4345 75.4474 10.5095C76.4077 9.56217 77.5827 9.09967 78.9724 9.09967C80.362 9.09967 81.537 9.56217 82.4804 10.5095C83.4407 11.4568 83.9096 12.6158 83.9096 14.0033C83.9096 14.1983 83.8926 14.4658 83.8362 14.8224H76.3738ZM81.5766 13.0895C81.215 11.9304 80.1643 11.1447 78.9385 11.1447C77.7635 11.1447 76.7354 11.9304 76.3908 13.0895H81.5766Z" fill="#161E34"/>
<path d="M91.8804 12.822C91.4623 11.897 90.5585 11.3231 89.4965 11.3231C88.7565 11.3231 88.1238 11.5738 87.6154 12.092C87.107 12.6103 86.8584 13.2344 86.8584 13.9978C86.8584 14.7612 87.1126 15.3909 87.6154 15.9035C88.1181 16.4162 88.7565 16.6725 89.4965 16.6725C90.5642 16.6725 91.468 16.1041 91.8804 15.1735L94.14 15.8311C93.4169 17.6867 91.6431 18.8959 89.4965 18.8959C88.0673 18.8959 86.8923 18.4334 85.9376 17.5028C84.9999 16.5555 84.5254 15.3964 84.5254 13.9922C84.5254 12.5824 84.9943 11.4234 85.9376 10.4984C86.898 9.55107 88.0729 9.08856 89.4965 9.08856C91.6488 9.08856 93.4169 10.3033 94.14 12.1533L91.8804 12.822Z" fill="#161E34"/>
<path d="M97.0887 14.8224C97.4333 16.0372 98.5179 16.8563 99.8341 16.8563C100.755 16.8563 101.495 16.5331 102.037 15.8756L104.223 16.4997C103.353 17.982 101.726 18.907 99.8284 18.907C98.3823 18.907 97.1734 18.4445 96.1961 17.5139C95.2358 16.5666 94.75 15.4075 94.75 14.0033C94.75 12.5935 95.2189 11.4345 96.1622 10.5095C97.1226 9.56217 98.2976 9.09967 99.6872 9.09967C101.077 9.09967 102.252 9.56217 103.195 10.5095C104.156 11.4568 104.624 12.6158 104.624 14.0033C104.624 14.1983 104.607 14.4658 104.551 14.8224H97.0887ZM102.297 13.0895C101.935 11.9304 100.885 11.1447 99.659 11.1447C98.484 11.1447 97.4559 11.9304 97.1113 13.0895H102.297Z" fill="#161E34"/>
<path d="M105.279 7.11594C105.279 6.31353 105.895 5.70615 106.708 5.70615C107.522 5.70615 108.155 6.31353 108.155 7.11594C108.155 7.91836 107.556 8.54246 106.708 8.54246C105.895 8.54246 105.279 7.91836 105.279 7.11594ZM105.584 18.6339V9.36159H107.844V18.6339H105.584Z" fill="#161E34"/>
<path d="M109.324 22.6461V9.36168H111.584V10.0917C112.414 9.43412 113.358 9.09421 114.42 9.09421C115.719 9.09421 116.803 9.55671 117.69 10.504C118.577 11.429 119.012 12.5881 119.012 13.9979C119.012 15.4077 118.577 16.5667 117.69 17.5084C116.803 18.4334 115.719 18.9015 114.42 18.9015C113.352 18.9015 112.414 18.5616 111.584 17.9041V22.6461H109.324ZM114.137 11.3231C113.431 11.3231 112.838 11.5739 112.346 12.0921C111.861 12.6103 111.623 13.2344 111.623 13.9979C111.623 14.7613 111.861 15.3909 112.346 15.9036C112.832 16.4218 113.431 16.6726 114.137 16.6726C114.843 16.6726 115.436 16.4218 115.928 15.9036C116.419 15.3854 116.668 14.7613 116.668 13.9979C116.668 13.2344 116.414 12.6048 115.928 12.0921C115.442 11.5795 114.838 11.3231 114.137 11.3231Z" fill="#161E34"/>
<path d="M119.357 9.36177H120.696V7.5452H122.956V9.36177H125.289V11.3065H122.956V15.391C122.956 16.0318 123.442 16.5166 124.114 16.5166H125.289V18.6397H123.899C122.995 18.6397 122.238 18.3555 121.623 17.8038C121.007 17.2522 120.702 16.5556 120.702 15.7198V11.3177H119.363V9.36177H119.357Z" fill="#161E34"/>
<path d="M126.47 7.1492C126.069 6.75356 125.865 6.27434 125.865 5.71154C125.865 5.14874 126.069 4.66952 126.47 4.27388C126.876 3.87825 127.362 3.67764 127.933 3.67764C128.503 3.67764 128.989 3.87825 129.39 4.27388C129.791 4.66952 129.995 5.14874 129.995 5.71154C129.995 6.27434 129.791 6.75356 129.39 7.1492C128.989 7.54483 128.503 7.74544 127.933 7.74544C127.362 7.74544 126.876 7.54483 126.47 7.1492ZM126.679 4.46891C126.334 4.80882 126.159 5.22675 126.159 5.71154C126.159 6.19633 126.334 6.60311 126.679 6.94859C127.029 7.28851 127.447 7.46125 127.938 7.46125C128.43 7.46125 128.842 7.28851 129.192 6.94859C129.537 6.60868 129.712 6.19633 129.712 5.71154C129.712 5.22675 129.537 4.81997 129.192 4.47448C128.848 4.129 128.43 3.95626 127.938 3.95626C127.447 3.95626 127.023 4.129 126.679 4.46891ZM127.063 6.79257V4.61936H128.091C128.317 4.61936 128.509 4.68623 128.656 4.83111C128.814 4.97042 128.887 5.13759 128.887 5.34934C128.887 5.62795 128.729 5.86756 128.481 5.99573L128.961 6.79257H128.441L128.018 6.07931H127.532V6.79257H127.063ZM127.532 5.04286V5.65582H128.091C128.272 5.65582 128.402 5.52765 128.402 5.34934C128.402 5.17102 128.272 5.04286 128.091 5.04286H127.532Z" fill="#161E34"/>
</g>
<defs>
<clipPath id="clip0">
<rect width="130" height="24" fill="white"/>
</clipPath>
</defs>
</svg>
